<?xml version="1.0" encoding="utf-8"?>
<svg version="1.1" xmlns:xlink="http://www.w3.org/1999/xlink" width="15px" height="10px" xmlns="http://www.w3.org/2000/svg">
  <g transform="matrix(1 0 0 1 -835 -65 )">
    <path d="M 14.2238499988483 1.03092783505156  C 14.3198273942521 1.14547537227948  14.3678160919541 1.27720504009164  14.3678160919541 1.42611683848797  C 14.3678160919541 1.57502863688429  14.3198273942521 1.70675830469645  14.2238499988483 1.82130584192441  L 7.51503006012025 9.82817869415809  C 7.41905266471643 9.94272623138602  7.308678660002 10  7.18390804597701 10  C 7.05913743195205 10  6.94876342723762 9.94272623138602  6.85278603183383 9.82817869415809  L 0.143966093105732 1.82130584192441  C 0.0479886977019106 1.70675830469645  0 1.57502863688429  0 1.42611683848797  C 0 1.27720504009164  0.0479886977019106 1.14547537227948  0.143966093105732 1.03092783505156  L 0.863796558634505 0.171821305841908  C 0.959773954038326 0.0572737686139817  1.07014795875274 0  1.19491857277772 0  C 1.31968918680275 0  1.43006319151712 0.0572737686139817  1.52604058692094 0.171821305841908  L 7.18390804597701 6.92439862542956  L 12.8417755050331 0.171821305841908  C 12.9377529004369 0.0572737686139817  13.0481269051513 0  13.1728975191763 0  C 13.2976681332013 0  13.4080421379157 0.0572737686139817  13.5040195333195 0.171821305841908  L 14.2238499988483 1.03092783505156  Z " fill-rule="nonzero" fill="#ff5850" stroke="none" transform="matrix(1 0 0 1 835 65 )" />
  </g>
</svg>