<svg id="Layer_1" data-name="Layer 1" xmlns="http://www.w3.org/2000/svg" viewBox="0 0 30 30"><defs><style>.cls-1{fill:#ff5850;}.cls-2{fill:#fff;}</style></defs><title>Glossary</title><path class="cls-1" d="M7,3H25a0,0,0,0,1,0,0V26a2,2,0,0,1-2,2H6a1,1,0,0,1-1-1V5A2,2,0,0,1,7,3Z"/><path class="cls-1" d="M7,8H26a0,0,0,0,1,0,0V26a2,2,0,0,1-2,2H6a1,1,0,0,1-1-1V10A2,2,0,0,1,7,8Z"/><rect class="cls-2" x="12" y="13" width="8" height="3" rx="0.28" ry="0.28"/><path class="cls-2" d="M7.69,4.25H23.15a.1.1,0,0,1,.1.1V7.77a.1.1,0,0,1-.1.1H7.69a1,1,0,0,1-1-1V5.25a1,1,0,0,1,1-1Z"/></svg>