<?xml version="1.0" encoding="utf-8"?>
<svg version="1.1" xmlns:xlink="http://www.w3.org/1999/xlink" width="25px" height="25px" xmlns="http://www.w3.org/2000/svg">
  <g transform="matrix(1 0 0 1 -190 -10 )">
    <path d="M 5.59902054467284 18.75  L 5.59902054467284 23  L 18.6634018155755 23  L 18.6634018155755 18.75  L 5.59902054467284 18.75  Z M 6 2.08333333333334  L 6 12.5  L 18.6634018155755 12.5  L 18.6634018155755 6.25  L 16.3304765886287 6.25  C 15.9416557174711 6.25  15.6111579769868 6.09809027777777  15.3389833671765 5.79427083333334  C 15.0668087573658 5.49045138888891  14.9307214524608 5.12152777777777  14.9307214524608 4.6875  L 14.9307214524608 2.08333333333334  L 6 2.08333333333334  Z M 22.1190473079912 14.2740885416667  C 22.3037372217909 14.0679253472222  22.3960821786911 13.8237847222222  22.3960821786911 13.5416666666667  C 22.3960821786911 13.2595486111111  22.3037372217909 13.0154079861111  22.1190473079912 12.8092447916667  C 21.934357394191 12.6030815972222  21.7156456541647 12.5  21.4629120879119 12.5  C 21.2101785216598 12.5  20.9914667816333 12.6030815972222  20.8067768678336 12.8092447916667  C 20.6220869540332 13.0154079861111  20.5297419971332 13.2595486111111  20.5297419971332 13.5416666666667  C 20.5297419971332 13.8237847222222  20.6220869540332 14.0679253472222  20.8067768678336 14.2740885416667  C 20.9914667816333 14.4802517361111  21.2101785216598 14.5833333333333  21.4629120879119 14.5833333333333  C 21.7156456541647 14.5833333333333  21.934357394191 14.4802517361111  22.1190473079912 14.2740885416667  Z M 23.438608139483 11.3362630208333  C 23.9878176199932 11.9493272569444  24.2624223602484 12.6844618055556  24.2624223602484 13.5416666666667  L 24.2624223602484 20.3125  C 24.2624223602484 20.4535590277778  24.2162498817988 20.5756293402778  24.1239049248984 20.6787109375  C 24.0315599679986 20.7817925347222  23.9222040979853 20.8333333333333  23.7958373148592 20.8333333333333  L 20.5297419971332 20.8333333333333  L 20.5297419971332 23.4375  C 20.5297419971332 23.8715277777778  20.3936546922282 24.2404513888889  20.1214800824177 24.5442708333333  C 19.8493054726071 24.8480902777778  19.5188077321227 25  19.1299868609651 25  L 5.13243549928325 25  C 4.74361462812567 25  4.41311688764154 24.8480902777778  4.14094227783062 24.5442708333333  C 3.86876766802038 24.2404513888889  3.73268036311515 23.8715277777778  3.73268036311515 23.4375  L 3.73268036311515 20.8333333333333  L 0.466585045389138 20.8333333333333  C 0.340218262263079 20.8333333333333  0.230862392249719 20.7817925347222  0.138517435349968 20.6787109375  C 0.0461724784499893 20.5756293402778  0 20.4535590277778  0 20.3125  L 0 13.5416666666667  C 0 12.6844618055556  0.274604740255199 11.9493272569444  0.823814220765598 11.3362630208333  C 1.37302370127622 10.7231987847222  2.03158905179976 10.4166666666667  2.79951027233642 10.4166666666667  L 3.73268036311515 10.4166666666667  L 3.73268036311515 1.5625  C 3.73268036311515 1.12847222222223  3.86876766802038 0.759548611111086  4.14094227783062 0.455729166666657  C 4.41311688764154 0.151909722222229  4.74361462812567 0  5.13243549928325 0  L 14.9307214524608 0  C 15.3195423236184 0  15.7472452818922 0.108506944444429  16.2138303272818 0.325520833333343  C 16.6804153726707 0.542534722222229  17.0497952002709 0.802951388888914  17.3219698100813 1.10677083333334  L 19.538248775681 3.58072916666666  C 19.8104233854915 3.88454861111109  20.0437159081862 4.296875  20.2381263437651 4.81770833333334  C 20.4325367793438 5.33854166666666  20.5297419971332 5.81597222222223  20.5297419971332 6.25  L 20.5297419971332 10.4166666666667  L 21.4629120879119 10.4166666666667  C 22.2308333084491 10.4166666666667  22.8893986589724 10.7231987847222  23.438608139483 11.3362630208333  Z " fill-rule="nonzero" fill="#ff5850" stroke="none" transform="matrix(1 0 0 1 190 10 )" />
  </g>
</svg>