<?xml version="1.0" encoding="utf-8"?>
<svg version="1.1" xmlns:xlink="http://www.w3.org/1999/xlink" width="25px" height="25px" xmlns="http://www.w3.org/2000/svg">
  <g transform="matrix(1 0 0 1 -265 -10 )">
    <path d="M 16.2434895833333 15.9830729166667  C 17.2417534722222 15.0499131944444  18.4244791666667 14.5833333333333  19.7916666666667 14.5833333333333  C 21.2348090277778 14.5833333333333  22.4636501736113 15.0906032986111  23.4781901041667 16.1051432291667  C 24.4927300347222 17.1196831597222  25 18.3485243055556  25 19.7916666666667  C 25 21.2348090277778  24.4927300347222 22.4636501736111  23.4781901041667 23.4781901041667  C 22.4636501736113 24.4927300347222  21.2348090277778 25  19.7916666666667 25  C 18.3485243055554 25  17.1196831597222 24.4927300347222  16.1051432291667 23.4781901041667  C 15.0906032986113 22.4636501736111  14.5833333333333 21.2348090277778  14.5833333333333 19.7916666666667  C 14.5833333333333 19.6614583333333  14.5941840277778 19.4769965277778  14.6158854166667 19.23828125  L 8.75651041666674 16.30859375  C 7.75824652777783 17.2417534722222  6.57552083333349 17.7083333333333  5.20833333333326 17.7083333333333  C 3.76519097222217 17.7083333333333  2.53634982638869 17.2010633680556  1.52180989583326 16.1865234375  C 0.507269965277828 15.1719835069444  0 13.9431423611111  0 12.5  C 0 11.0568576388889  0.507269965277828 9.82801649305557  1.52180989583326 8.8134765625  C 2.53634982638869 7.79893663194443  3.76519097222217 7.29166666666666  5.20833333333326 7.29166666666666  C 6.57552083333349 7.29166666666666  7.75824652777783 7.75824652777777  8.75651041666674 8.69140625  L 14.6158854166667 5.76171875  C 14.5941840277778 5.52300347222223  14.5833333333333 5.33854166666666  14.5833333333333 5.20833333333334  C 14.5833333333333 3.76519097222223  15.0906032986113 2.53634982638891  16.1051432291667 1.52180989583334  C 17.1196831597222 0.507269965277771  18.3485243055554 0  19.7916666666667 0  C 21.2348090277778 0  22.4636501736113 0.507269965277771  23.4781901041667 1.52180989583334  C 24.4927300347222 2.53634982638891  25 3.76519097222223  25 5.20833333333334  C 25 6.65147569444443  24.4927300347222 7.88031684027777  23.4781901041667 8.89485677083334  C 22.4636501736113 9.90939670138891  21.2348090277778 10.4166666666667  19.7916666666667 10.4166666666667  C 18.4244791666667 10.4166666666667  17.2417534722222 9.95008680555557  16.2434895833333 9.01692708333334  L 10.3841145833333 11.9466145833333  C 10.4058159722222 12.1853298611111  10.4166666666667 12.3697916666667  10.4166666666667 12.5  C 10.4166666666667 12.6302083333333  10.4058159722222 12.8146701388889  10.3841145833333 13.0533854166667  L 16.2434895833333 15.9830729166667  Z " fill-rule="nonzero" fill="#ff5850" stroke="none" transform="matrix(1 0 0 1 265 10 )" />
  </g>
</svg>