<svg xmlns="http://www.w3.org/2000/svg" viewBox="0 0 30 30"><defs><style>.cls-1,.cls-4{fill:#fff;}.cls-1,.cls-2,.cls-3,.cls-4{stroke:#ff5850;stroke-miterlimit:10;}.cls-1,.cls-2{stroke-width:2px;}.cls-2,.cls-3{fill:none;}.cls-5{fill:#ff5850;}</style></defs><title>Prosecution Process Icon</title><g id="Layer_1" data-name="Layer 1"><line class="cls-1" x1="4" y1="4.5" x2="27" y2="4.5"/><line class="cls-2" x1="15.17" y1="5" x2="15.17" y2="26"/><line class="cls-2" x1="6" y1="26.5" x2="24" y2="26.5"/><polygon class="cls-3" points="6.67 7.63 8.88 13.51 11.09 19.39 6.67 19.39 2.26 19.39 4.46 13.51 6.67 7.63"/><polygon class="cls-3" points="23.67 7.75 25.88 13.62 28.09 19.5 23.67 19.5 19.26 19.5 21.46 13.62 23.67 7.75"/></g><g id="Layer_2" data-name="Layer 2"><circle class="cls-4" cx="15.15" cy="4.3" r="1.76"/><path class="cls-5" d="M12,19.16c0,2.79-2.15,3.17-5.06,3.17s-5.48-.38-5.48-3.17"/><path class="cls-5" d="M29,19.27c0,2.79-2.15,3.17-5.06,3.17s-5.48-.38-5.48-3.17"/></g></svg>